<svg width="140" height="145" viewBox="0 0 140 145" fill="none" xmlns="http://www.w3.org/2000/svg">
<g filter="url(#filter0_f_108_279)">
<path d="M74.6716 94.2482C74.0501 94.6993 73.3653 94.8999 72.6172 94.8498C71.8127 94.722 71.1848 94.3474 70.7337 93.7259L68.7881 91.0456C66.9634 87.3878 66.0528 83.6003 66.0563 79.6831C66.1376 75.7095 66.6642 70.8787 67.6364 65.1908C68.3178 60.9001 68.7161 57.5267 68.8313 55.0706C68.89 52.5369 68.3661 50.426 67.2595 48.7381C65.7444 46.1606 63.547 44.8493 60.6673 44.8043C57.809 44.6253 55.0979 45.4663 52.5342 47.3273C46.4744 51.726 44.86 57.3463 47.6912 64.1881C48.4231 66.5039 47.8956 68.3102 46.1088 69.6073L31.8915 79.9274C31.037 80.5478 30.1404 80.7834 29.2018 80.6343C28.2845 80.3512 27.4875 79.7435 26.8108 78.8112C23.8645 74.4254 22.2915 69.3987 22.092 63.7309C21.836 57.9854 23.32 52.1038 26.544 46.0862C29.7679 40.0686 34.8371 34.5503 41.7515 29.5312C48.8212 24.3993 55.388 21.3527 61.4517 20.3912C67.4591 19.3521 72.5793 19.7873 76.8124 21.6968C81.0668 23.4722 84.4065 26.0302 86.8315 29.3709C89.5948 33.1777 91.1263 37.1669 91.426 41.3385C91.8034 45.4537 91.6364 50.6165 90.925 56.827C90.4628 60.6026 90.1741 63.7185 90.0589 66.1746C90.0215 68.5743 90.3123 70.8543 90.9315 73.0146C91.2059 73.883 91.6953 75.1292 92.3997 76.7532C92.5677 78.292 92.5878 79.4637 92.46 80.2682C92.3322 81.0727 91.8411 81.7851 90.9865 82.4054L74.6716 94.2482ZM92.838 118.784C91.9834 119.405 91.0868 119.64 90.1482 119.491C89.2096 119.342 88.4302 118.84 87.8099 117.986L78.1665 104.701C77.5461 103.846 77.3105 102.95 77.4596 102.011C77.6086 101.072 78.1105 100.293 78.9651 99.6727L93.8815 88.845C94.7361 88.2247 95.6327 87.989 96.5713 88.1381C97.5875 88.2308 98.4058 88.7044 99.0262 89.559L108.67 102.844C109.29 103.699 109.487 104.623 109.26 105.618C109.111 106.557 108.609 107.336 107.754 107.957L92.838 118.784Z" fill="#DFDFDF" fill-opacity="0.35"/>
</g>
<defs>
<filter id="filter0_f_108_279" x="0.539062" y="0.0449219" width="138.872" height="144.334" filterUnits="userSpaceOnUse" color-interpolation-filters="sRGB">
<feFlood flood-opacity="0" result="BackgroundImageFix"/>
<feBlend mode="normal" in="SourceGraphic" in2="BackgroundImageFix" result="shape"/>
<feGaussianBlur stdDeviation="4" result="effect1_foregroundBlur_108_279"/>
</filter>
</defs>
</svg>
