<svg width="136" height="144" viewBox="0 0 136 144" fill="none" xmlns="http://www.w3.org/2000/svg">
<g filter="url(#filter0_f_108_288)">
<path d="M49.8264 85.1417C49.1646 84.752 48.7073 84.2042 48.4545 83.4983C48.2504 82.7097 48.3432 81.9845 48.7329 81.3227L50.4134 78.4687C53.0384 75.3353 56.1472 72.9882 59.7401 71.4273C63.4156 69.9152 68.0549 68.4693 73.6579 67.0894C77.8638 66.001 81.1157 65.0192 83.4135 64.1441C85.76 63.1863 87.4861 61.8631 88.5917 60.1746C90.3499 57.7563 90.6747 55.2181 89.5662 52.56C88.589 49.8679 86.7355 47.7181 84.0056 46.1107C77.5531 42.3112 71.7557 43.0753 66.6134 48.4028C64.7825 49.9985 62.9158 50.2361 61.0131 49.1158L45.8746 40.2017C44.9647 39.6659 44.3906 38.938 44.1526 38.0179C44.0459 37.0639 44.2848 36.0905 44.8694 35.0978C47.7139 30.6454 51.6945 27.1962 56.8113 24.7502C61.9767 22.2214 67.9616 21.2336 74.766 21.7866C81.5703 22.3397 88.6537 24.7838 96.0162 29.1191C103.544 33.5518 108.959 38.3559 112.262 43.5314C115.613 48.6242 117.259 53.4923 117.198 58.1358C117.269 62.7452 116.257 66.8285 114.163 70.3857C111.776 74.4391 108.73 77.4361 105.025 79.3765C101.403 81.3657 96.6029 83.274 90.6249 85.1015C86.9787 86.1853 84.0068 87.1647 81.709 88.0398C79.4939 88.9636 77.5196 90.1407 75.7862 91.5709C75.0996 92.1693 74.1525 93.1156 72.9448 94.4098C71.6011 95.1782 70.5349 95.6645 69.7463 95.8686C68.9577 96.0726 68.1084 95.9068 67.1984 95.371L49.8264 85.1417ZM34.5845 111.594C33.6745 111.058 33.1005 110.33 32.8624 109.41C32.6243 108.49 32.7732 107.575 33.309 106.665L41.6386 92.5194C42.1744 91.6095 42.9023 91.0354 43.8224 90.7973C44.7424 90.5593 45.6574 90.7081 46.5674 91.2439L62.4504 100.596C63.3603 101.132 63.9344 101.86 64.1725 102.78C64.4933 103.749 64.3858 104.688 63.85 105.598L55.5204 119.744C54.9846 120.654 54.2153 121.204 53.2125 121.393C52.2925 121.631 51.3775 121.482 50.4675 120.947L34.5845 111.594Z" fill="#DFDFDF" fill-opacity="0.35"/>
</g>
<defs>
<filter id="filter0_f_108_288" x="0.774628" y="0.29541" width="134.759" height="143.483" filterUnits="userSpaceOnUse" color-interpolation-filters="sRGB">
<feFlood flood-opacity="0" result="BackgroundImageFix"/>
<feBlend mode="normal" in="SourceGraphic" in2="BackgroundImageFix" result="shape"/>
<feGaussianBlur stdDeviation="4" result="effect1_foregroundBlur_108_288"/>
</filter>
</defs>
</svg>
