<svg width="137" height="144" viewBox="0 0 137 144" fill="none" xmlns="http://www.w3.org/2000/svg">
<g filter="url(#filter0_f_108_289)">
<path d="M71.2083 94.405C70.5526 94.8049 69.854 94.95 69.1123 94.8403C68.3206 94.6485 67.7247 94.2249 67.3248 93.5692L65.5999 90.7419C64.0736 86.9498 63.469 83.1017 63.786 79.1973C64.1849 75.2429 65.0964 70.4698 66.5205 64.8779C67.5431 60.6555 68.21 57.3247 68.5213 54.8857C68.7826 52.3648 68.4293 50.2188 67.4613 48.4478C66.1572 45.7572 64.0718 44.2744 61.205 43.9991C58.3701 43.592 55.6005 44.2133 52.896 45.8632C46.5037 49.763 44.4448 55.2361 46.7195 62.2825C47.2638 64.6494 46.5935 66.4078 44.7086 67.5577L29.7112 76.7072C28.8097 77.2572 27.8971 77.4203 26.9735 77.1966C26.0818 76.841 25.336 76.1714 24.736 75.188C22.1501 70.5806 20.9844 65.4441 21.239 59.7785C21.4436 54.031 23.3934 48.287 27.0885 42.5466C30.7835 36.8063 36.278 31.7112 43.5718 27.2615C51.0295 22.7117 57.819 20.2002 63.9402 19.727C70.0114 19.1719 75.0804 20.0154 79.1472 22.2574C83.2459 24.3676 86.3702 27.1846 88.5201 30.7086C90.9699 34.7243 92.1774 38.8233 92.1423 43.0054C92.1893 47.1376 91.6097 52.2706 90.4036 58.4042C89.6408 62.1307 89.1038 65.2135 88.7925 67.6525C88.5631 70.0415 88.6706 72.3375 89.1149 74.5405C89.319 75.428 89.7072 76.7094 90.2793 78.3845C90.3236 79.9318 90.2499 81.1014 90.0582 81.8931C89.8665 82.6848 89.3199 83.3556 88.4184 83.9056L71.2083 94.405ZM87.3532 120.316C86.4517 120.866 85.5392 121.029 84.6155 120.805C83.6919 120.582 82.9551 120.019 82.4051 119.118L73.8556 105.104C73.3056 104.202 73.1425 103.29 73.3662 102.366C73.5899 101.442 74.1524 100.706 75.0539 100.156L90.7889 90.5561C91.6904 90.0062 92.6029 89.843 93.5266 90.0667C94.5322 90.2404 95.31 90.778 95.8599 91.6795L104.409 105.693C104.959 106.595 105.082 107.532 104.776 108.506C104.552 109.43 103.99 110.167 103.088 110.717L87.3532 120.316Z" fill="#DFDFDF" fill-opacity="0.35"/>
</g>
<defs>
<filter id="filter0_f_108_289" x="0.536896" y="0.212402" width="135.506" height="143.703" filterUnits="userSpaceOnUse" color-interpolation-filters="sRGB">
<feFlood flood-opacity="0" result="BackgroundImageFix"/>
<feBlend mode="normal" in="SourceGraphic" in2="BackgroundImageFix" result="shape"/>
<feGaussianBlur stdDeviation="4" result="effect1_foregroundBlur_108_289"/>
</filter>
</defs>
</svg>
