<svg width="93" height="100" viewBox="0 0 93 100" fill="none" xmlns="http://www.w3.org/2000/svg">
<g filter="url(#filter0_f_108_281)">
<path d="M34.6345 59.7073C34.172 59.4878 33.8358 59.1512 33.6261 58.6975C33.4438 58.1859 33.4624 57.6989 33.682 57.2363L34.6286 55.2415C36.1858 53.0052 38.1109 51.2622 40.4041 50.0127C42.755 48.7906 45.7499 47.5553 49.3885 46.3068C52.1168 45.3346 54.2179 44.4898 55.6918 43.7724C57.1931 42.9972 58.2608 42.0163 58.8948 40.8295C59.9189 39.1194 59.984 37.4147 59.0903 35.7154C58.2818 33.9858 56.9235 32.6682 55.0154 31.7627C50.5055 29.6225 46.7012 30.4736 43.6025 34.3162C42.4814 35.4844 41.256 35.7529 39.9261 35.1218L29.3451 30.1005C28.7091 29.7987 28.2848 29.3494 28.0721 28.7526C27.9447 28.1254 28.0456 27.4649 28.3749 26.771C29.9997 23.6458 32.4383 21.1194 35.6909 19.1917C38.9709 17.2062 42.8864 16.1953 47.4375 16.159C51.9885 16.1226 56.837 17.3255 61.983 19.7676C67.2446 22.2645 71.1254 25.1334 73.6253 28.3741C76.1528 31.5571 77.5341 34.6921 77.7694 37.779C78.0899 40.8356 77.6602 43.607 76.4803 46.0932C75.1358 48.9264 73.291 51.0971 70.9459 52.6053C68.6586 54.141 65.5844 55.6929 61.7233 57.2609C59.3665 58.1968 57.4511 59.0235 55.9772 59.7408C54.5611 60.4856 53.32 61.3843 52.2538 62.4368C51.8334 62.8749 51.2606 63.5594 50.5354 64.4904C49.6887 65.0804 49.0096 65.4665 48.498 65.6488C47.9865 65.8311 47.4127 65.7713 46.7767 65.4695L34.6345 59.7073ZM26.0824 78.1763C25.4464 77.8745 25.0221 77.4251 24.8094 76.8283C24.5968 76.2315 24.6413 75.6151 24.9432 74.9791L29.6352 65.0919C29.937 64.4559 30.3863 64.0316 30.9832 63.8189C31.58 63.6062 32.1964 63.6508 32.8324 63.9527L43.9338 69.2209C44.5698 69.5227 44.9941 69.9721 45.2068 70.5689C45.4773 71.1931 45.4616 71.8232 45.1598 72.4593L40.4677 82.3464C40.1659 82.9824 39.6877 83.3931 39.033 83.5783C38.4362 83.791 37.8198 83.7464 37.1838 83.4445L26.0824 78.1763Z" fill="#DFDFDF" fill-opacity="0.35"/>
</g>
<defs>
<filter id="filter0_f_108_281" x="0.0427246" y="0.0375977" width="91.9695" height="99.7622" filterUnits="userSpaceOnUse" color-interpolation-filters="sRGB">
<feFlood flood-opacity="0" result="BackgroundImageFix"/>
<feBlend mode="normal" in="SourceGraphic" in2="BackgroundImageFix" result="shape"/>
<feGaussianBlur stdDeviation="4" result="effect1_foregroundBlur_108_281"/>
</filter>
</defs>
</svg>
