<svg width="203" height="244" viewBox="0 0 203 244" fill="none" xmlns="http://www.w3.org/2000/svg">
<g filter="url(#filter0_f_108_280)">
<path d="M77.0275 160.098C75.5116 159.851 74.2625 159.16 73.2802 158.027C72.3289 156.705 71.977 155.286 72.2245 153.77L73.2918 147.232C75.9176 139.49 80.0148 132.864 85.5835 127.353C91.3417 121.873 98.9445 115.819 108.392 109.191C115.446 104.117 120.798 99.9327 124.448 96.6378C128.13 93.1535 130.39 89.4371 131.229 85.4888C132.757 79.7073 131.525 74.74 127.534 70.5867C123.764 66.2748 118.752 63.6084 112.499 62.5875C97.7184 60.1744 87.4627 65.7954 81.7316 79.4504C79.4732 83.7507 76.1649 85.5451 71.8066 84.8335L37.1297 79.1721C35.0453 78.8318 33.4481 77.8902 32.3382 76.3472C31.4488 74.6456 31.1897 72.6579 31.5609 70.384C33.6414 60.0239 38.5662 50.7117 46.3353 42.4476C54.1353 33.9939 64.5786 27.8199 77.6651 23.9256C90.7515 20.0314 105.727 19.4609 122.592 22.2142C139.836 25.0295 153.409 30.0664 163.313 37.325C173.248 44.3942 179.84 52.2793 183.088 60.9804C186.557 69.5229 187.626 77.8683 186.296 86.0164C184.78 95.3015 181.271 103.094 175.768 109.393C170.454 115.724 162.886 122.757 153.064 130.491C147.05 135.151 142.218 139.128 138.568 142.423C135.107 145.749 132.278 149.372 130.081 153.294C129.234 154.906 128.153 157.356 126.839 160.643C124.89 163.049 123.254 164.727 121.931 165.678C120.609 166.63 118.905 166.935 116.821 166.595L77.0275 160.098ZM67.7582 220.449C65.6738 220.109 64.0766 219.167 62.9668 217.624C61.8569 216.081 61.4721 214.268 61.8124 212.183L67.1025 179.78C67.4428 177.696 68.3845 176.099 69.9275 174.989C71.4705 173.879 73.2842 173.494 75.3686 173.834L111.751 179.774C113.835 180.115 115.432 181.056 116.542 182.599C117.842 184.173 118.321 186.002 117.981 188.087L112.691 220.49C112.35 222.574 111.314 224.156 109.582 225.235C108.039 226.345 106.225 226.729 104.141 226.389L67.7582 220.449Z" fill="#DFDFDF" fill-opacity="0.35"/>
</g>
<defs>
<filter id="filter0_f_108_280" x="0.636932" y="0.98877" width="202.151" height="242.82" filterUnits="userSpaceOnUse" color-interpolation-filters="sRGB">
<feFlood flood-opacity="0" result="BackgroundImageFix"/>
<feBlend mode="normal" in="SourceGraphic" in2="BackgroundImageFix" result="shape"/>
<feGaussianBlur stdDeviation="4" result="effect1_foregroundBlur_108_280"/>
</filter>
</defs>
</svg>
